<?xml version="1.0" standalone="no"?>
<!DOCTYPE svg PUBLIC "-//W3C//DTD SVG 1.1//EN" "http://www.w3.org/Graphics/SVG/1.1/DTD/svg11.dtd" >
<svg xmlns="http://www.w3.org/2000/svg">
<metadata></metadata>
<defs>
<font id="canaroextralight" horiz-adv-x="1255" >
<font-face units-per-em="2048" ascent="1638" descent="-410" />
<missing-glyph horiz-adv-x="550" />
<glyph unicode="&#xfb01;" horiz-adv-x="1181" d="M10 850v84h236v194q0 208 100.5 312t294.5 104q89 0 162 -18.5t162 -61.5l-39 -67q-131 63 -281 63q-155 0 -231 -82.5t-76 -251.5v-192h668v-934h-93v850h-575v-850h-92v850h-236z" />
<glyph unicode="&#xfb02;" horiz-adv-x="1220" d="M10 850v84h236v211q0 192 101 295.5t290 103.5q86 0 151 -17t140 -54l82 -7v-1466h-90v1391q-70 37 -131 53t-150 16q-147 0 -224 -82t-77 -235v-209h389v-84h-389v-850h-92v850h-236z" />
<glyph horiz-adv-x="2048" />
<glyph horiz-adv-x="2048" />
<glyph unicode="&#xd;" horiz-adv-x="2048" />
<glyph unicode=" "  horiz-adv-x="550" />
<glyph unicode="&#x09;" horiz-adv-x="550" />
<glyph unicode="&#xa0;" horiz-adv-x="550" />
<glyph unicode="!" horiz-adv-x="475" d="M164 53q0 31 21.5 52.5t52.5 21.5q32 0 53.5 -21.5t21.5 -52.5q0 -32 -21.5 -52.5t-53.5 -20.5q-31 0 -52.5 20.5t-21.5 52.5zM188 1393h99l-4 -1049h-93z" />
<glyph unicode="&#x22;" horiz-adv-x="677" d="M172 1092l4 464h105l-27 -464h-82zM438 1092l6 464h103l-27 -464h-82z" />
<glyph unicode="#" horiz-adv-x="1480" d="M94 434v80h252l115 365h-254v77h278l138 439h92l-137 -439h471l137 439h92l-137 -439h245v-77h-270l-112 -365h270v-80h-295l-137 -434h-92l135 434h-469l-137 -434h-93l136 434h-228zM440 514h469l115 365h-471z" />
<glyph unicode="$" horiz-adv-x="1400" d="M154 86l28 86q281 -115 551 -115q180 0 290 82.5t110 225.5q0 47 -14 86.5t-36 68t-57.5 52t-72 39t-85.5 29.5t-91 23.5t-96 20.5q-27 5 -40 8q-235 50 -326.5 124.5t-91.5 221.5q0 169 119 271.5t317 111.5v265h86v-267q232 -6 441 -78l-25 -81q-239 73 -469 73 q-168 0 -269 -77.5t-101 -215.5q0 -110 78.5 -166t279.5 -98q69 -15 114 -25.5t102.5 -26.5t94.5 -32.5t79 -39t68 -49.5t48.5 -61t32.5 -77t10 -94q0 -184 -132.5 -290.5t-351.5 -111.5v-248h-86v250q-260 15 -505 115z" />
<glyph unicode="%" horiz-adv-x="2209" d="M197 1042q0 169 105 275t265 106q159 0 264 -106.5t105 -274.5q0 -171 -105 -277t-264 -106q-160 0 -265 106t-105 277zM272 1042q0 -136 84 -221.5t209 -85.5t209 85.5t84 221.5t-84 222t-209 86t-209 -86t-84 -222zM604 0l918 1393h69l-917 -1393h-70zM1274 352 q0 168 105.5 274.5t265.5 106.5q159 0 263.5 -106.5t104.5 -274.5q0 -171 -104.5 -277t-263.5 -106q-161 0 -266 106t-105 277zM1350 352q0 -136 83.5 -221.5t208.5 -85.5t209 85.5t84 221.5t-84 221.5t-209 85.5t-208.5 -85.5t-83.5 -221.5z" />
<glyph unicode="&#x26;" horiz-adv-x="1300" d="M94 383q0 122 77 208.5t218 121.5q-119 37 -182.5 117t-63.5 194q0 170 122 272.5t331 102.5q139 0 270 -35l-20 -82q-131 35 -252 35q-167 0 -262.5 -79.5t-95.5 -211.5q0 -127 93.5 -200.5t270.5 -73.5h627v-82h-154v-283q0 -189 -131 -302.5t-358 -113.5 q-226 0 -358 112.5t-132 299.5zM184 385q0 -151 107 -241.5t293 -90.5t292.5 91t106.5 243v283h-383q-195 0 -305.5 -78t-110.5 -207z" />
<glyph unicode="'" horiz-adv-x="409" d="M172 1092l4 464h103l-27 -464h-80z" />
<glyph unicode="(" horiz-adv-x="641" d="M123 541q0 571 344 989l70 -43q-157 -209 -239.5 -437t-82.5 -509q0 -280 82.5 -508.5t239.5 -435.5l-70 -46q-344 421 -344 990z" />
<glyph unicode=")" horiz-adv-x="638" d="M102 -403q157 207 239.5 435.5t82.5 508.5q0 281 -82.5 509t-239.5 437l70 43q344 -418 344 -989q0 -569 -344 -990z" />
<glyph unicode="*" horiz-adv-x="813" d="M113 961l235 139l-235 139l30 53l232 -137v244h61v-246l234 139l30 -53l-233 -139l233 -139l-30 -52l-234 138v-250h-61v250l-232 -138z" />
<glyph unicode="+" horiz-adv-x="1429" d="M254 610v86h416v420h92v-420h414v-86h-414v-417h-92v417h-416z" />
<glyph unicode="," horiz-adv-x="532" d="M135 -313l107 303q-54 15 -54 67q0 32 23 54t55 22q34 0 57 -22t23 -54q0 -7 -0.5 -12.5t-1.5 -12t-4 -15.5l-6 -18t-9.5 -25.5t-13 -32.5t-18 -43.5t-22.5 -54.5t-29 -70.5t-35 -85.5h-72z" />
<glyph unicode="-" horiz-adv-x="1103" d="M254 520h596v90h-596v-90z" />
<glyph unicode="." horiz-adv-x="532" d="M186 55q0 33 23.5 55.5t56.5 22.5t56.5 -22.5t23.5 -55.5q0 -32 -23.5 -53.5t-56.5 -21.5t-56.5 21.5t-23.5 53.5z" />
<glyph unicode="/" horiz-adv-x="962" d="M49 -557l744 2130h86l-744 -2130h-86z" />
<glyph unicode="0" horiz-adv-x="1546" d="M143 696q0 327 173 527t456 200q284 0 456.5 -200t172.5 -527t-172.5 -527t-456.5 -200q-283 0 -456 200t-173 527zM244 696q0 -287 145 -463t383 -176q239 0 385 176t146 463t-146 463t-385 176q-238 0 -383 -176t-145 -463z" />
<glyph unicode="1" horiz-adv-x="821" d="M47 1243l477 150h33v-1393h-94v1288l-393 -123z" />
<glyph unicode="2" horiz-adv-x="1185" d="M115 1294q99 61 220.5 95t235.5 34q214 0 339.5 -114t125.5 -297q0 -63 -20.5 -125.5t-50 -113t-83 -112t-97.5 -104.5t-115 -108l-402 -363h801v-86h-948v61l497 459q50 47 73 68.5t65 64t62 67.5t48.5 64.5t41 71t22.5 70.5t10 78q0 152 -104 241.5t-277 89.5 q-92 0 -201.5 -30.5t-212.5 -87.5z" />
<glyph unicode="3" horiz-adv-x="1202" d="M90 86l33 72q250 -105 455 -105q169 0 290 95.5t121 234.5q0 150 -110.5 226.5t-315.5 76.5h-166v45l512 576h-755v86h886v-62l-503 -565h53q238 -3 366.5 -100.5t128.5 -280.5q0 -181 -145.5 -298.5t-364.5 -117.5q-253 0 -485 117z" />
<glyph unicode="4" horiz-adv-x="1380" d="M98 279v61l860 1053h95v-1031h202v-83h-202v-279h-95v279h-860zM225 362h733v900z" />
<glyph unicode="5" horiz-adv-x="1251" d="M119 86l33 78q248 -109 473 -109q171 0 283 93.5t112 254.5q0 143 -109 229t-305 95l-418 18l62 648h815v-88h-733l-47 -478l329 -16q238 -11 370 -116.5t132 -288.5q0 -200 -137.5 -318.5t-351.5 -118.5q-264 0 -508 117z" />
<glyph unicode="6" horiz-adv-x="1263" d="M123 455q0 156 104 305l447 633h114l-348 -492q89 29 191 29q224 0 367 -131t143 -344q0 -217 -143.5 -351.5t-366.5 -134.5t-365.5 134.5t-142.5 351.5zM217 455q0 -180 117 -292t297 -112q182 0 299 112t117 292q0 177 -117 286t-299 109q-187 0 -300.5 -108 t-113.5 -287z" />
<glyph unicode="7" horiz-adv-x="1118" d="M66 1305v88h983v-60l-646 -1333h-108l639 1305h-868z" />
<glyph unicode="8" horiz-adv-x="1302" d="M115 379q0 133 91 226t253 128q-124 39 -193 126.5t-69 209.5q0 159 125.5 256.5t328.5 97.5q205 0 331 -97.5t126 -256.5q0 -122 -69.5 -210t-194.5 -126q162 -35 253 -128t91 -226q0 -183 -148 -296.5t-389 -113.5t-388.5 113.5t-147.5 296.5zM213 381 q0 -146 121.5 -238t316.5 -92q196 0 317.5 92.5t121.5 237.5q0 139 -121 223t-318 84t-317.5 -84t-120.5 -223zM293 1065q0 -133 97.5 -213t260.5 -80t262 80t99 213q0 125 -99.5 203t-261.5 78t-260 -78t-98 -203z" />
<glyph unicode="9" horiz-adv-x="1218" d="M98 938q0 217 143 351t367 134q223 0 365.5 -134t142.5 -351q0 -152 -100 -299l-2 -4l-443 -635h-114l340 485q-78 -22 -189 -22q-225 0 -367.5 131t-142.5 344zM193 938q0 -177 116.5 -286t298.5 -109q187 0 300.5 108t113.5 287q0 180 -117 291.5t-297 111.5 q-182 0 -298.5 -111.5t-116.5 -291.5z" />
<glyph unicode=":" horiz-adv-x="532" d="M186 55q0 33 22.5 55.5t55.5 22.5q34 0 57 -22t23 -56q0 -32 -23 -53.5t-57 -21.5q-33 0 -55.5 21.5t-22.5 53.5zM186 879q0 33 23.5 55t56.5 22t56.5 -22t23.5 -55q0 -32 -23.5 -54t-56.5 -22t-56.5 22t-23.5 54z" />
<glyph unicode=";" horiz-adv-x="536" d="M135 -313l107 303q-56 16 -56 67q0 32 23 54t57 22q32 0 55 -22t23 -54q0 -27 -13.5 -64.5t-76.5 -188.5q-10 -23 -15.5 -36.5t-15 -36.5t-18.5 -44h-70zM193 879q0 33 22 55t55 22q34 0 57 -22t23 -55q0 -32 -23 -54t-57 -22q-32 0 -54.5 22t-22.5 54z" />
<glyph unicode="&#x3c;" horiz-adv-x="1142" d="M119 569v95l864 421v-96l-764 -373l764 -374v-95z" />
<glyph unicode="=" horiz-adv-x="1492" d="M254 430v86h987v-86h-987zM254 823v88h987v-88h-987z" />
<glyph unicode="&#x3e;" horiz-adv-x="1142" d="M160 147v95l764 374l-764 373v96l864 -421v-95z" />
<glyph unicode="?" horiz-adv-x="1003" d="M109 1380q162 43 333 43q220 0 354 -114t134 -303q0 -194 -128 -315.5t-333 -121.5h-61l10 -225h-86l-21 307h146q172 0 277.5 98t105.5 259q0 150 -108.5 240.5t-287.5 90.5q-161 0 -317 -39zM307 53q0 31 21.5 52.5t52.5 21.5q32 0 54 -21.5t22 -52.5 q0 -32 -21.5 -52.5t-54.5 -20.5q-31 0 -52.5 20.5t-21.5 52.5z" />
<glyph unicode="@" horiz-adv-x="2074" d="M127 526q0 188 69.5 352.5t190.5 282t290 185t361 67.5q270 0 476.5 -110t320 -312t113.5 -465q0 -250 -85.5 -369.5t-234.5 -119.5q-180 0 -239 135q-116 -77 -207.5 -109t-196.5 -32q-212 0 -340.5 136.5t-128.5 360.5q2 199 131 327t342 128q223 0 455 -49v-567 q0 -130 43.5 -194t148.5 -64q248 0 248 417q0 245 -105.5 433.5t-298 291.5t-442.5 103q-176 0 -333 -64t-269 -174t-177.5 -263.5t-65.5 -326.5q0 -231 108.5 -420.5t300 -298t426.5 -108.5q208 0 490 65l12 -57q-279 -69 -502 -69q-193 0 -360.5 67.5t-286 185.5 t-186.5 282.5t-68 352.5zM606 524q0 -187 105.5 -301t279.5 -114q91 0 176.5 29.5t202.5 101.5q-14 57 -14 137v493q-168 35 -359 35q-180 0 -285.5 -107.5t-105.5 -273.5z" />
<glyph unicode="A" horiz-adv-x="1538" d="M90 0l633 1403h92l633 -1403h-107l-163 369h-818l-165 -369h-105zM397 455h742l-369 829z" />
<glyph unicode="B" horiz-adv-x="1386" d="M221 0v1393q329 14 506 14q209 0 329 -92t120 -264q0 -125 -70 -210t-203 -120q169 -29 259.5 -118t90.5 -224q0 -190 -139.5 -291.5t-380.5 -101.5q-125 0 -512 14zM315 82q290 -12 412 -12q202 0 317 80t115 235q0 134 -115 209.5t-307 75.5h-422v-588zM315 754h381 q185 0 286 75t101 211q0 139 -96 210t-266 71q-198 0 -406 -10v-557z" />
<glyph unicode="C" horiz-adv-x="1562" d="M143 696q0 329 207 528t559 199q234 0 471 -71l-20 -86q-238 67 -442 67q-314 0 -494 -174.5t-180 -462.5t178 -463.5t475 -175.5q223 0 502 80l18 -80q-268 -88 -524 -88q-341 0 -545.5 199.5t-204.5 527.5z" />
<glyph unicode="D" horiz-adv-x="1548" d="M221 0v1393q301 14 457 14q329 0 528 -187.5t199 -512.5q0 -220 -91 -383.5t-253 -249.5t-375 -86q-78 0 -465 12zM315 84q238 -8 371 -8q279 0 449 169t170 462q0 286 -171 450t-456 164q-129 0 -363 -12v-1225z" />
<glyph unicode="E" horiz-adv-x="1318" d="M221 0v1393h946v-88h-852v-566h768v-86h-768v-565h852v-88h-946z" />
<glyph unicode="F" horiz-adv-x="1239" d="M221 0v1393h924v-88h-830v-611h746v-86h-746v-608h-94z" />
<glyph unicode="G" horiz-adv-x="1667" d="M143 698q0 326 207.5 525.5t546.5 199.5q250 0 483 -71l-20 -86q-250 67 -459 67q-296 0 -476.5 -174.5t-180.5 -460.5q0 -287 177 -463t466 -176q270 0 536 103v489h-585v86h675v-631q-305 -137 -626 -137q-335 0 -539.5 200.5t-204.5 528.5z" />
<glyph unicode="H" horiz-adv-x="1540" d="M221 0v1393h94v-656h910v656h94v-1393h-94v649h-910v-649h-94z" />
<glyph unicode="I" horiz-adv-x="534" d="M221 0v1393h94v-1393h-94z" />
<glyph unicode="J" horiz-adv-x="1177" d="M63 61l23 84q235 -86 426 -86q175 0 273 114.5t98 322.5v897h96v-897q0 -251 -122.5 -389t-344.5 -138q-206 0 -449 92z" />
<glyph unicode="K" horiz-adv-x="1386" d="M221 0v1393h94v-697h168l650 697h120l-651 -697l719 -696h-125l-635 606h-246v-606h-94z" />
<glyph unicode="L" horiz-adv-x="1191" d="M221 0v1393h94v-1307h797v-86h-891z" />
<glyph unicode="M" horiz-adv-x="1937" d="M201 0l80 1393h96l592 -1278l592 1278h96l80 -1393h-92l-72 1192l-559 -1192h-90l-559 1192l-72 -1192h-92z" />
<glyph unicode="N" horiz-adv-x="1599" d="M221 0v1393h98l965 -1248v1248h96v-1393h-102l-963 1245v-1245h-94z" />
<glyph unicode="O" horiz-adv-x="1742" d="M143 696q0 326 201.5 526.5t527.5 200.5q215 0 380 -90.5t256 -255.5t91 -381t-91 -381t-256 -255.5t-380 -90.5q-326 0 -527.5 200.5t-201.5 526.5zM244 696q0 -287 173 -463t455 -176q280 0 453.5 176t173.5 463t-173.5 463t-453.5 176q-282 0 -455 -176t-173 -463z " />
<glyph unicode="P" horiz-adv-x="1306" d="M221 0v1393q235 14 459 14q242 0 387 -121.5t145 -339.5q0 -204 -147 -328t-385 -124h-365v-494h-94zM315 580h371q193 0 311.5 100.5t118.5 265.5q0 179 -117 277t-313 98q-160 0 -371 -12v-729z" />
<glyph unicode="Q" horiz-adv-x="1742" d="M143 696q0 216 91 381t256 255.5t380 90.5q326 0 527.5 -200.5t201.5 -526.5q0 -244 -115 -420.5t-317 -252.5l310 -361h-121l-283 330q-103 -23 -203 -23q-215 0 -380 90.5t-256 255.5t-91 381zM244 696q0 -287 173 -463t455 -176q280 0 453.5 176t173.5 463t-173.5 463 t-453.5 176q-282 0 -455 -176t-173 -463z" />
<glyph unicode="R" horiz-adv-x="1333" d="M221 0v1393q262 14 430 14q244 0 386.5 -110t142.5 -318q0 -165 -88.5 -273.5t-247.5 -150.5l418 -555h-115l-399 535q-41 -7 -113 -7h-320v-528h-94zM315 612h344q193 0 309.5 96.5t116.5 270.5q0 167 -116.5 254.5t-315.5 87.5q-123 0 -338 -10v-699z" />
<glyph unicode="S" horiz-adv-x="1400" d="M154 86l28 86q281 -115 551 -115q180 0 290 82.5t110 225.5q0 47 -14 86.5t-36 68t-57.5 52t-72 39t-85.5 29.5t-91 23.5t-96 20.5q-27 5 -40 8q-236 50 -328 124.5t-92 221.5q0 177 129.5 280t343.5 103q120 0 253 -22.5t239 -57.5l-27 -81q-236 73 -467 73 q-168 0 -269 -77.5t-101 -215.5q0 -110 78 -166t278 -98q54 -12 91.5 -20.5t85 -20.5t80 -23.5t71.5 -27t64.5 -32.5t53.5 -38t45 -46t32 -55t21.5 -65.5t6.5 -76.5q0 -188 -137.5 -295t-362.5 -107q-139 0 -292 31.5t-283 85.5z" />
<glyph unicode="T" horiz-adv-x="1361" d="M61 1305v88h1239v-88h-571v-1305h-94v1305h-574z" />
<glyph unicode="U" horiz-adv-x="1566" d="M201 543v850h94v-850q0 -221 133.5 -353.5t353.5 -132.5q221 0 355.5 133t134.5 353v850h94v-850q0 -260 -160.5 -417t-423.5 -157t-422 156.5t-159 417.5z" />
<glyph unicode="V" horiz-adv-x="1558" d="M92 1393h109l579 -1268l580 1268h106l-639 -1393h-94z" />
<glyph unicode="W" horiz-adv-x="2162" d="M90 1393h100l431 -1246l417 1246h86l418 -1243l428 1243h103l-484 -1393h-90l-418 1239l-417 -1239h-93z" />
<glyph unicode="X" horiz-adv-x="1394" d="M66 0l567 692l-547 701h119l493 -623l492 623h119l-547 -701l567 -692h-115l-516 621l-518 -621h-114z" />
<glyph unicode="Y" horiz-adv-x="1386" d="M57 1393h109l526 -785l529 785h108l-588 -881v-512h-96v512z" />
<glyph unicode="Z" horiz-adv-x="1349" d="M143 0v63l924 1242h-901v88h1030v-64l-917 -1241h919v-88h-1055z" />
<glyph unicode="[" horiz-adv-x="645" d="M168 -442v1966h367v-86h-275v-1794h275v-86h-367z" />
<glyph unicode="\" horiz-adv-x="962" d="M98 1573h95l712 -2130h-94z" />
<glyph unicode="]" horiz-adv-x="645" d="M111 -356h274v1794h-274v86h366v-1966h-366v86z" />
<glyph unicode="^" horiz-adv-x="817" d="M55 903l314 490h80l313 -490h-94l-260 404l-258 -404h-95z" />
<glyph unicode="_" horiz-adv-x="1349" d="M94 -293h1163v-82h-1163v82z" />
<glyph unicode="`" horiz-adv-x="1228" d="M426 1503h125l182 -323h-92z" />
<glyph unicode="a" horiz-adv-x="1243" d="M123 471q0 224 129 359t346 135q123 0 224 -11.5t239 -40.5v-913h-92v88q-100 -62 -187.5 -90.5t-187.5 -28.5q-212 0 -341.5 138t-129.5 364zM215 469q0 -189 105.5 -304.5t281.5 -115.5q92 0 176.5 28.5t190.5 94.5v678q-170 33 -363 33q-182 0 -286.5 -113 t-104.5 -301z" />
<glyph unicode="b" horiz-adv-x="1253" d="M193 18v1436h92v-541q161 52 364 52q222 0 351.5 -134.5t129.5 -359.5q0 -228 -129.5 -364t-341.5 -136q-93 0 -140 1.5t-130.5 12t-195.5 33.5zM285 84q84 -17 151 -25t103.5 -9t105.5 -1q182 0 287.5 115.5t105.5 306.5q0 187 -105 299.5t-290 112.5q-200 0 -358 -49 v-750z" />
<glyph unicode="c" horiz-adv-x="1097" d="M123 469q0 226 142.5 362t375.5 136q163 0 317 -52l-16 -73q-163 45 -299 45q-191 0 -308.5 -114.5t-117.5 -303.5t114 -303.5t296 -114.5q142 0 340 55l18 -77q-197 -60 -356 -60q-226 0 -366 137t-140 363z" />
<glyph unicode="d" horiz-adv-x="1253" d="M123 471q0 225 129.5 359.5t351.5 134.5q204 0 365 -52v541h92v-1436q-112 -23 -195.5 -33.5t-131 -12t-140.5 -1.5q-212 0 -341.5 136t-129.5 364zM215 471q0 -191 105.5 -306.5t287.5 -115.5q69 0 105.5 1t104 9t151.5 25v750q-158 49 -359 49q-185 0 -290 -112.5 t-105 -299.5z" />
<glyph unicode="e" horiz-adv-x="1169" d="M123 471q0 222 133.5 358t347.5 136q200 0 321.5 -123.5t121.5 -333.5q0 -33 -3 -76h-823q11 -172 117 -275.5t278 -103.5q64 0 129 8t106 17.5t114 27.5l16 -73q-69 -22 -112 -33t-112 -21t-143 -10q-225 0 -358 138.5t-133 363.5zM219 508h744q-1 177 -98.5 278 t-258.5 101q-169 0 -273.5 -103.5t-113.5 -275.5z" />
<glyph unicode="f" horiz-adv-x="761" d="M10 850v84h269v283q0 150 85 238.5t224 88.5q76 0 164 -24l-17 -78q-73 18 -145 18q-99 0 -159 -66.5t-60 -179.5v-280h372v-84h-372v-850h-92v850h-269z" />
<glyph unicode="g" horiz-adv-x="1232" d="M123 471q0 224 129 359t346 135q133 0 235 -12t228 -40v-893q0 -239 -133 -380.5t-359 -141.5q-192 0 -358 76l20 76q169 -68 336 -68q184 0 292.5 118.5t109.5 324.5q-81 -17 -147 -24.5t-106.5 -9t-121.5 -1.5q-211 0 -341 134.5t-130 346.5zM215 469 q0 -174 106 -286.5t281 -112.5h24q66 0 101.5 1t99.5 9t142 24v746q-170 33 -363 33q-182 0 -286.5 -113t-104.5 -301z" />
<glyph unicode="h" horiz-adv-x="1241" d="M195 0v1454h90v-541q184 52 407 52q178 0 276.5 -103t98.5 -289v-573h-90v557q0 153 -78.5 238.5t-218.5 85.5q-217 0 -395 -52v-829h-90z" />
<glyph unicode="i" horiz-adv-x="499" d="M176 1288q0 32 21 53t53 21q31 0 53.5 -21t22.5 -53q0 -31 -22.5 -52.5t-53.5 -21.5q-32 0 -53 21.5t-21 52.5zM205 0v934h92v-934h-92z" />
<glyph unicode="j" horiz-adv-x="466" d="M-49 -391h4q127 0 177 65q52 65 52 220v1040h92v-1032q0 -201 -70.5 -287.5t-250.5 -87.5zM154 1288q0 32 22 53t53 21t53.5 -21t22.5 -53q0 -31 -22.5 -52.5t-53.5 -21.5t-53 21.5t-22 52.5z" />
<glyph unicode="k" horiz-adv-x="1148" d="M193 0v1454h92v-940h157l428 420h119l-436 -428l518 -506h-119l-448 428h-219v-428h-92z" />
<glyph unicode="l" horiz-adv-x="512" d="M211 0v1454h90v-1454h-90z" />
<glyph unicode="m" horiz-adv-x="1845" d="M193 0v913q206 43 425 52q193 0 275 -88q196 88 434 88q170 0 258 -99.5t88 -292.5v-573h-92v557q0 324 -266 324q-193 0 -375 -72q39 -77 39 -219v-590h-92v573q0 171 -65 239.5t-218 68.5q-191 -11 -319 -35v-846h-92z" />
<glyph unicode="n" horiz-adv-x="1241" d="M193 0v913q222 52 499 52q177 0 276 -103t99 -289v-573h-92v557q0 154 -78 239t-219 85q-205 0 -393 -35v-846h-92z" />
<glyph unicode="o" d="M123 471q0 223 141.5 359.5t364.5 136.5q222 0 363 -137t141 -359q0 -224 -141.5 -364t-362.5 -140q-223 0 -364.5 140t-141.5 364zM217 471q0 -187 115 -302.5t297 -115.5q181 0 295 115.5t114 302.5q0 185 -114 298.5t-295 113.5q-183 0 -297.5 -113.5t-114.5 -298.5z " />
<glyph unicode="p" d="M193 -457v1370q228 52 462 52q217 0 345 -135t130 -359q0 -212 -130 -346.5t-341 -134.5q-81 0 -121 1.5t-106 9t-147 24.5v-482h-92zM285 104q78 -16 142 -24t98.5 -9t101.5 -1h8h7.5h8.5q175 0 281 112.5t106 286.5q0 188 -104.5 301t-286.5 113q-192 0 -362 -33v-746z " />
<glyph unicode="q" d="M125 471q2 224 130 359t345 135q235 0 463 -52v-1370h-92v482q-81 -17 -147 -24.5t-106.5 -9t-121.5 -1.5q-211 0 -341 134.5t-130 346.5zM217 469q0 -174 106 -286.5t281 -112.5h24q66 0 101.5 1t99.5 9t142 24v746q-170 33 -361 33q-184 0 -288.5 -113t-104.5 -301z " />
<glyph unicode="r" horiz-adv-x="780" d="M193 0v911q258 43 493 43v-90q-218 0 -401 -22v-842h-92z" />
<glyph unicode="s" horiz-adv-x="1052" d="M135 66l25 77q214 -94 397 -94q122 0 198 51t76 142q0 89 -89 135q-58 29 -229 68h-1h-1h-1l-1 1h-1h-1h-1l-1 1h-1h-1h-1h-1l-1 1h-1h-1h-1l-1 1h-1h-1h-1h-1l-1 1h-1h-1h-1l-1 1h-2q-79 17 -131.5 36t-93 47t-59.5 68.5t-19 95.5q0 127 94.5 196t262.5 69 q180 0 348 -62l-25 -76q-171 60 -332 60q-124 0 -191 -47t-67 -138q0 -75 54.5 -108.5t197.5 -67.5q181 -41 244 -68q117 -50 142 -143q8 -30 8 -65q0 -132 -100.5 -205.5t-266.5 -73.5q-195 0 -416 97z" />
<glyph unicode="t" horiz-adv-x="868" d="M57 850v84h222v414h92v-414h346v-84h-346v-524q0 -146 50 -209.5t169 -63.5q74 0 164 19l14 -76q-105 -27 -188 -27q-158 0 -229.5 83t-71.5 267v531h-222z" />
<glyph unicode="u" horiz-adv-x="1241" d="M176 360v574h92v-559q0 -156 77 -240t220 -84q202 0 393 33v850h93v-914q-218 -51 -498 -51q-181 0 -279 100t-98 291z" />
<glyph unicode="v" horiz-adv-x="1175" d="M92 934h101l395 -830l395 830h102l-446 -934h-100z" />
<glyph unicode="w" horiz-adv-x="1689" d="M106 934h97l313 -803l289 803h80l291 -805l311 805h94l-356 -934h-95l-286 797l-285 -797h-92z" />
<glyph unicode="x" horiz-adv-x="1087" d="M84 0l399 465l-391 469h113l338 -402l340 402h112l-391 -469l400 -465h-111l-348 401l-350 -401h-111z" />
<glyph unicode="y" horiz-adv-x="1236" d="M88 934h105l438 -801l420 801h104l-729 -1391h-102l258 494z" />
<glyph unicode="z" horiz-adv-x="1007" d="M115 0v55l647 797h-623v82h750v-60l-645 -792h653v-82h-782z" />
<glyph unicode="{" horiz-adv-x="737" d="M92 496v82q121 0 172 58.5t51 201.5v346q0 186 73.5 268t240.5 82v-84q-122 0 -172.5 -59t-50.5 -205v-350q0 -130 -34 -200t-114 -99q80 -29 114 -99t34 -200v-353q0 -145 50.5 -204.5t172.5 -59.5v-84q-167 0 -240.5 83t-73.5 269v347q0 143 -51 201.5t-172 58.5z" />
<glyph unicode="|" horiz-adv-x="626" d="M268 -311v1880h90v-1880h-90z" />
<glyph unicode="}" horiz-adv-x="737" d="M111 -379q120 0 170.5 60t50.5 204v353q0 130 33.5 200t113.5 99q-80 29 -113.5 99t-33.5 200v350q0 145 -50 204.5t-171 59.5v84q166 0 239.5 -82t73.5 -268v-346q0 -144 50 -202t171 -58v-82q-121 0 -171 -58t-50 -202v-347q0 -186 -73.5 -269t-239.5 -83v84z" />
<glyph unicode="~" horiz-adv-x="954" d="M125 643q0 58 21 100.5t54.5 63.5t73.5 28.5t79 -0.5t69 -28l139 -96q28 -18 60.5 -22t60 6t45.5 37.5t18 68.5h82q0 -72 -32 -120.5t-78.5 -64.5t-97 -11.5t-89.5 30.5l-139 96q-28 18 -60 22.5t-59.5 -5.5t-46 -37t-18.5 -68h-82z" />
<glyph unicode="&#xa1;" horiz-adv-x="534" d="M190 893q0 31 22 52.5t54 21.5q31 0 52.5 -21.5t21.5 -52.5t-21.5 -52.5t-52.5 -21.5q-32 0 -54 21.5t-22 52.5zM215 -446l4 1046h92l2 -1046h-98z" />
<glyph unicode="&#xa2;" horiz-adv-x="1058" d="M109 487q0 213 127 347t337 149v252h86v-250q150 -7 285 -51l-14 -76q-167 45 -305 45q-188 0 -305 -113.5t-117 -300.5t114.5 -301t294.5 -114q142 0 340 55l19 -80q-160 -51 -312 -57v-254h-86v254q-210 12 -337 146.5t-127 348.5z" />
<glyph unicode="&#xa3;" horiz-adv-x="1277" d="M102 0v82h166v506h-166v82h166v336q0 189 134 303t354 114q172 0 331 -43l-16 -80q-159 39 -317 39q-179 0 -286.5 -90t-107.5 -241v-338h523v-82h-523v-506h826v-82h-1084z" />
<glyph unicode="&#xa5;" horiz-adv-x="1353" d="M41 1393h109l528 -785l526 785h109l-551 -826h412v-73h-449v-215h449v-76h-449v-203h-96v203h-449v76h449v215h-449v73h414z" />
<glyph unicode="&#xa6;" horiz-adv-x="626" d="M268 -313v835h90v-835h-90zM268 731v836h90v-836h-90z" />
<glyph unicode="&#xa7;" horiz-adv-x="1077" d="M90 657q0 107 54.5 176t162.5 132q-62 42 -89.5 86t-27.5 106q0 124 95 195t266 71q188 0 350 -65l-29 -74q-173 62 -323 62q-129 0 -199.5 -49t-70.5 -138q0 -69 59 -116q44 -35 203 -111h1l1 -1h1l1 -1h1l1 -1h1h1l1 -1h1l1 -1h1l1 -1h1l1 -1h1l1 -1h2l1 -1l1 -1h1 l1 -1h1l1 -1h1l1 -1h1h1l1 -1h1l1 -1h1l1 -1h1l1 -1h1l1 -1h1l2 -1q89 -41 146 -71t111 -66.5t83.5 -73t47 -82.5t17.5 -102q0 -107 -54.5 -175.5t-162.5 -129.5q62 -42 89.5 -87t27.5 -108q0 -123 -96 -194.5t-267 -71.5q-179 0 -348 68l27 74q173 -64 325 -64 q129 0 200 49t71 137q0 51 -34 90t-79 63.5t-171 82.5q-14 7 -21 10q-90 42 -145.5 71.5t-110.5 67t-84 73t-46.5 81.5t-17.5 102zM174 670q0 -29 5 -54.5t19.5 -49t27 -41t41.5 -39t48.5 -35.5t62 -36.5t68.5 -35t80 -39.5q24 -12 87.5 -42.5t91.5 -45.5q103 58 150.5 114 t47.5 142q0 38 -9.5 70t-34 61.5t-48.5 51t-72 49t-84 45.5t-104 51q-139 67 -178 90q-102 -58 -150.5 -114.5t-48.5 -141.5z" />
<glyph unicode="&#xa8;" horiz-adv-x="1228" d="M330 1288q0 30 20 50t51 20t52.5 -20.5t21.5 -49.5q0 -30 -21.5 -50.5t-52.5 -20.5t-51 20t-20 51zM756 1288q0 30 20 50t51 20t52.5 -20.5t21.5 -49.5q0 -30 -21.5 -50.5t-52.5 -20.5t-51 20t-20 51z" />
<glyph unicode="&#xa9;" horiz-adv-x="1738" d="M123 696q0 205 97.5 371.5t268.5 261t381 94.5t381 -94.5t268 -261t97 -371.5t-97 -371.5t-268 -261t-381 -94.5t-381 94.5t-268.5 261t-97.5 371.5zM184 696q0 -140 53 -264t144 -213t218 -140.5t271 -51.5q143 0 270 51.5t218.5 140.5t144.5 213t53 264t-53 264.5 t-144.5 213t-218.5 140.5t-270 52q-144 0 -271 -52t-218 -140.5t-144 -213t-53 -264.5zM467 694q0 191 107 298.5t305 107.5q123 0 280 -49l-18 -66q-150 43 -262 43q-160 0 -246 -87t-86 -247t84.5 -248t240.5 -88q84 0 269 41l16 -63q-161 -49 -280 -49q-198 0 -304 107.5 t-106 299.5z" />
<glyph unicode="&#xaa;" horiz-adv-x="946" d="M135 932q0 188 311 203l271 10v24q-1 98 -52 141.5t-159 43.5q-123 0 -283 -23l-8 68q156 24 289 24q147 0 217 -60.5t70 -191.5v-413q-201 -37 -355 -37q-301 0 -301 211zM211 934q0 -148 235 -148q106 0 271 25v272l-277 -12q-229 -9 -229 -137z" />
<glyph unicode="&#xab;" horiz-adv-x="1079" d="M115 504l379 393l55 -47l-322 -344l322 -344l-55 -51zM489 504l379 393l56 -47l-322 -344l320 -344l-54 -51z" />
<glyph unicode="&#xad;" horiz-adv-x="1103" d="M254 520h596v90h-596v-90z" />
<glyph unicode="&#xae;" horiz-adv-x="1738" d="M123 696q0 205 97.5 371.5t268.5 261t381 94.5t381 -94.5t268 -261t97 -371.5t-97 -371.5t-268 -261t-381 -94.5t-381 94.5t-268.5 261t-97.5 371.5zM184 696q0 -140 53 -264t144 -213t218 -140.5t271 -51.5q143 0 270 51.5t218.5 140.5t144.5 213t53 264t-53 264.5 t-144.5 213t-218.5 140.5t-270 52q-144 0 -271 -52t-218 -140.5t-144 -213t-53 -264.5zM610 299v795q252 6 264 6q145 0 229.5 -64t84.5 -184q0 -94 -52 -156t-145 -86l240 -311h-90l-221 295q-36 -4 -50 -4h-186v-291h-74zM684 655h195q108 0 172.5 51.5t64.5 145.5 q0 90 -64.5 137t-174.5 47q-88 0 -193 -6v-375z" />
<glyph unicode="&#xaf;" horiz-adv-x="1228" d="M340 1298v74h547v-74h-547z" />
<glyph unicode="&#xb0;" horiz-adv-x="1011" d="M170 1094q0 140 97 234.5t239 94.5t239 -94.5t97 -234.5q0 -138 -97 -233t-239 -95t-239 95t-97 233zM250 1094q0 -104 75 -177t181 -73t181 73t75 177q0 107 -75 181.5t-181 74.5t-181 -74.5t-75 -181.5z" />
<glyph unicode="&#xb1;" horiz-adv-x="1429" d="M254 102v88h922v-88h-922zM254 664v88h416v348h92v-348h414v-88h-414v-347h-92v347h-416z" />
<glyph unicode="&#xb2;" horiz-adv-x="722" d="M82 1341q122 66 260 66q127 0 197.5 -63t70.5 -162q0 -81 -50.5 -148.5t-151.5 -154.5l-195 -168h416v-68h-541v51l281 244q80 66 120.5 118.5t40.5 114.5q0 77 -53 120.5t-143 43.5q-110 0 -230 -57z" />
<glyph unicode="&#xb3;" horiz-adv-x="729" d="M63 692l27 60q134 -56 252 -56q92 0 156.5 45t64.5 113q0 71 -56.5 107t-162.5 36h-115v37l273 289h-398v70h504v-50l-270 -280h22q130 -3 202.5 -57t72.5 -148q0 -102 -81.5 -165.5t-213.5 -63.5q-154 0 -277 63z" />
<glyph unicode="&#xb4;" horiz-adv-x="1228" d="M532 1180l183 323h125l-215 -323h-93z" />
<glyph unicode="&#xb6;" horiz-adv-x="1507" d="M90 946q0 222 126.5 341.5t363.5 119.5q478 0 716 -14v-1602h-96v1518q-86 4 -323 8v-1526h-95v703h-202q-234 0 -362 122t-128 330zM184 946q0 -169 100.5 -267.5t288.5 -98.5h209v739l-209 2q-191 0 -290 -95.5t-99 -279.5z" />
<glyph unicode="&#xb7;" horiz-adv-x="532" d="M186 518q0 32 23.5 54t56.5 22t56.5 -22t23.5 -54q0 -33 -23.5 -55.5t-56.5 -22.5t-56.5 22.5t-23.5 55.5z" />
<glyph unicode="&#xb8;" horiz-adv-x="1228" d="M455 -414l108 312h92l-116 -312h-84z" />
<glyph unicode="&#xb9;" horiz-adv-x="571" d="M45 1309l262 84h23v-680h184v-68h-465v68h207v587l-193 -59z" />
<glyph unicode="&#xba;" horiz-adv-x="917" d="M98 1075q0 155 102 251.5t259 96.5q158 0 259 -96t101 -252q0 -159 -101 -257.5t-259 -98.5q-157 0 -259 99t-102 257zM178 1075q0 -126 79 -204t202 -78t201.5 78t78.5 204q0 125 -78.5 202t-201.5 77t-202 -77t-79 -202z" />
<glyph unicode="&#xbb;" horiz-adv-x="1079" d="M154 162l321 344l-321 344l55 47l379 -393l-379 -393zM528 162l320 344l-320 344l56 47l379 -393l-379 -393z" />
<glyph unicode="&#xbc;" horiz-adv-x="1738" d="M133 1309l262 84h23v-680h184v-68h-465v68h207v587l-192 -59zM399 0l918 1393h69l-917 -1393h-70zM944 172v53l477 523h78v-510h121v-66h-121v-172h-76v172h-479zM1047 238h376v417z" />
<glyph unicode="&#xbd;" horiz-adv-x="1792" d="M133 1309l262 84h23v-680h184v-68h-465v68h207v587l-192 -59zM362 0l918 1393h70l-918 -1393h-70zM1081 698q122 66 260 66q127 0 198 -63t71 -162q0 -43 -15 -82.5t-47.5 -79.5t-61.5 -68.5t-79 -72.5l-197 -168h418v-68h-543v51l281 244q81 65 122.5 118t41.5 115 q0 77 -53.5 120.5t-145.5 43.5q-107 0 -227 -57z" />
<glyph unicode="&#xbe;" horiz-adv-x="1890" d="M178 692l27 60q134 -56 252 -56q92 0 156.5 45t64.5 113q0 71 -56.5 107t-162.5 36h-115v37l272 289h-397v70h504v-50l-270 -280h22q130 -3 202.5 -57t72.5 -148q0 -102 -81.5 -165.5t-213.5 -63.5q-154 0 -277 63zM492 0l919 1393h70l-920 -1393h-69zM1020 172v53 l477 523h78v-510h121v-66h-121v-172h-76v172h-479zM1120 238h379v417z" />
<glyph unicode="&#xbf;" horiz-adv-x="1011" d="M109 29q0 194 127.5 315t334.5 121h60l-8 225h84l20 -305h-143q-173 0 -278 -98.5t-105 -259.5q0 -151 108 -241.5t287 -90.5q159 0 315 39l19 -80q-162 -43 -334 -43q-219 0 -353 114.5t-134 303.5zM582 981q0 32 22 53t53 21t53.5 -21t22.5 -53q0 -30 -22.5 -51 t-53.5 -21t-53 21t-22 51z" />
<glyph unicode="&#xc0;" horiz-adv-x="1538" d="M90 0l633 1403h94l633 -1403h-107l-165 369h-818l-163 -369h-107zM397 455h742l-369 829zM506 1839h125l182 -319h-92z" />
<glyph unicode="&#xc1;" horiz-adv-x="1538" d="M90 0l633 1403h94l633 -1403h-107l-165 369h-818l-163 -369h-107zM397 455h742l-369 829zM729 1520l186 319h125l-215 -319h-96z" />
<glyph unicode="&#xc2;" horiz-adv-x="1538" d="M90 0l633 1403h94l633 -1403h-107l-165 369h-818l-163 -369h-107zM397 455h742l-369 829zM459 1520l266 319h90l266 -319h-96l-215 245l-215 -245h-96z" />
<glyph unicode="&#xc3;" horiz-adv-x="1538" d="M90 0l633 1403h94l633 -1403h-107l-165 369h-818l-163 -369h-107zM397 455h742l-369 829zM467 1571q0 62 27.5 103t67.5 55t83.5 10t77.5 -25l117 -82q25 -15 52 -18.5t49.5 5t37 31.5t14.5 58h74q0 -62 -27 -103.5t-67 -55t-83.5 -9t-76.5 26.5l-119 80 q-23 16 -49.5 19.5t-49.5 -5t-38.5 -32.5t-15.5 -58h-74z" />
<glyph unicode="&#xc4;" horiz-adv-x="1538" d="M90 0l633 1403h94l633 -1403h-107l-165 369h-818l-163 -369h-107zM397 455h742l-369 829zM485 1677q0 31 20.5 51.5t51.5 20.5t51.5 -20.5t20.5 -51.5q0 -29 -20.5 -49t-51.5 -20t-51.5 20t-20.5 49zM909 1677q0 31 21.5 51.5t52.5 20.5t51.5 -20.5t20.5 -51.5 q0 -29 -20.5 -49t-51.5 -20t-52.5 20t-21.5 49z" />
<glyph unicode="&#xc5;" horiz-adv-x="1538" d="M90 0l633 1403h94l633 -1403h-107l-165 369h-818l-163 -369h-107zM397 455h742l-369 829zM584 1673q0 82 53 132t131 50q79 0 131.5 -50t52.5 -132q0 -78 -53 -129t-131 -51q-77 0 -130.5 51.5t-53.5 128.5zM647 1673q0 -53 34.5 -86t86.5 -33t87.5 33t35.5 86 q0 54 -35.5 88.5t-87.5 34.5t-86.5 -34t-34.5 -89z" />
<glyph unicode="&#xc6;" horiz-adv-x="2277" d="M90 0l1061 1393h975v-88h-852v-566h768v-86h-768v-565h852v-88h-948v367h-693l-278 -367h-117zM551 455h627v825z" />
<glyph unicode="&#xc7;" horiz-adv-x="1562" d="M143 696q0 329 207 528t559 199q237 0 469 -71l-18 -86q-241 67 -442 67q-314 0 -494 -174.5t-180 -462.5t177 -463.5t474 -175.5q225 0 504 80l18 -80q-271 -88 -524 -88q-341 0 -545.5 199.5t-204.5 527.5zM700 -414l109 312h92l-117 -312h-84z" />
<glyph unicode="&#xc8;" horiz-adv-x="1318" d="M219 0v1393h946v-88h-852v-566h770v-86h-770v-565h852v-88h-946zM426 1839h125l182 -319h-92z" />
<glyph unicode="&#xc9;" horiz-adv-x="1318" d="M219 0v1393h946v-88h-852v-566h770v-86h-770v-565h852v-88h-946zM647 1520l187 319h124l-215 -319h-96z" />
<glyph unicode="&#xca;" horiz-adv-x="1318" d="M219 0v1393h946v-88h-852v-566h770v-86h-770v-565h852v-88h-946zM377 1520l266 319h90l266 -319h-96l-215 245l-215 -245h-96z" />
<glyph unicode="&#xcb;" horiz-adv-x="1318" d="M219 0v1393h946v-88h-852v-566h770v-86h-770v-565h852v-88h-946zM403 1677q0 31 20.5 51.5t51.5 20.5t51.5 -20.5t20.5 -51.5q0 -29 -20.5 -49t-51.5 -20t-51.5 20t-20.5 49zM827 1677q0 31 21.5 51.5t52.5 20.5t51.5 -20.5t20.5 -51.5q0 -29 -20.5 -49t-51.5 -20 t-52.5 20t-21.5 49z" />
<glyph unicode="&#xcc;" horiz-adv-x="534" d="M4 1839h125l182 -319h-92zM219 0v1393h94v-1393h-94z" />
<glyph unicode="&#xcd;" horiz-adv-x="534" d="M219 0v1393h94v-1393h-94zM227 1520l187 319h125l-215 -319h-97z" />
<glyph unicode="&#xce;" horiz-adv-x="534" d="M-43 1520l266 319h90l267 -319h-97l-215 245l-215 -245h-96zM219 0v1393h94v-1393h-94z" />
<glyph unicode="&#xcf;" horiz-adv-x="534" d="M-18 1677q0 31 21 51.5t52 20.5t51.5 -20.5t20.5 -51.5q0 -29 -20.5 -49t-51.5 -20t-52 20t-21 49zM219 0v1393h94v-1393h-94zM408 1677q0 31 21 51.5t52 20.5t51.5 -20.5t20.5 -51.5q0 -29 -20.5 -49t-51.5 -20t-52 20t-21 49z" />
<glyph unicode="&#xd0;" horiz-adv-x="1548" d="M76 649v88h143v656q306 14 457 14q329 0 528 -187.5t199 -512.5q0 -219 -91 -383t-252.5 -250t-373.5 -86q-74 0 -467 12v649h-143zM315 84q242 -8 371 -8q279 0 449 169t170 462q0 286 -171 450t-456 164q-129 0 -363 -12v-572h412v-88h-412v-565z" />
<glyph unicode="&#xd1;" horiz-adv-x="1599" d="M219 0v1393h98l967 -1248v1248h94v-1393h-100l-965 1245v-1245h-94zM492 1571q0 62 27.5 103t67.5 55t83.5 10t77.5 -25l116 -82q25 -15 52 -18.5t49.5 5t37.5 31.5t15 58h74q0 -62 -27 -103.5t-67 -55t-83.5 -9t-76.5 26.5l-119 80q-23 16 -50 19.5t-50 -5t-38.5 -32.5 t-15.5 -58h-73z" />
<glyph unicode="&#xd2;" horiz-adv-x="1742" d="M143 696q0 216 91 381t256 255.5t380 90.5q326 0 527.5 -200.5t201.5 -526.5t-201.5 -526.5t-527.5 -200.5q-215 0 -380 90.5t-256 255.5t-91 381zM244 696q0 -287 173 -463t455 -176q280 0 453.5 176t173.5 463t-173.5 463t-453.5 176q-282 0 -455 -176t-173 -463z M608 1839h125l182 -319h-92z" />
<glyph unicode="&#xd3;" horiz-adv-x="1742" d="M143 696q0 216 91 381t256 255.5t380 90.5q326 0 527.5 -200.5t201.5 -526.5t-201.5 -526.5t-527.5 -200.5q-215 0 -380 90.5t-256 255.5t-91 381zM244 696q0 -287 173 -463t455 -176q280 0 453.5 176t173.5 463t-173.5 463t-453.5 176q-282 0 -455 -176t-173 -463z M831 1520l187 319h125l-215 -319h-97z" />
<glyph unicode="&#xd4;" horiz-adv-x="1742" d="M143 696q0 216 91 381t256 255.5t380 90.5q326 0 527.5 -200.5t201.5 -526.5t-201.5 -526.5t-527.5 -200.5q-215 0 -380 90.5t-256 255.5t-91 381zM244 696q0 -287 173 -463t455 -176q280 0 453.5 176t173.5 463t-173.5 463t-453.5 176q-282 0 -455 -176t-173 -463z M561 1520l266 319h91l266 -319h-97l-215 245l-215 -245h-96z" />
<glyph unicode="&#xd5;" horiz-adv-x="1742" d="M143 696q0 216 91 381t256 255.5t380 90.5q326 0 527.5 -200.5t201.5 -526.5t-201.5 -526.5t-527.5 -200.5q-215 0 -380 90.5t-256 255.5t-91 381zM244 696q0 -287 173 -463t455 -176q280 0 453.5 176t173.5 463t-173.5 463t-453.5 176q-282 0 -455 -176t-173 -463z M567 1571q0 62 27.5 103t67.5 55t83.5 10t77.5 -25l117 -82q25 -15 52.5 -18.5t50.5 5t38 31.5t15 58h71q0 -62 -27 -103.5t-67 -55t-83.5 -9t-76.5 26.5l-118 80q-23 16 -50 19.5t-50 -5t-38.5 -32.5t-15.5 -58h-74z" />
<glyph unicode="&#xd6;" horiz-adv-x="1742" d="M143 696q0 216 91 381t256 255.5t380 90.5q326 0 527.5 -200.5t201.5 -526.5t-201.5 -526.5t-527.5 -200.5q-215 0 -380 90.5t-256 255.5t-91 381zM244 696q0 -287 173 -463t455 -176q280 0 453.5 176t173.5 463t-173.5 463t-453.5 176q-282 0 -455 -176t-173 -463z M588 1677q0 31 20 51.5t51 20.5t51.5 -20.5t20.5 -51.5q0 -29 -20.5 -49t-51.5 -20t-51 20t-20 49zM1012 1677q0 31 21 51.5t52 20.5t51.5 -20.5t20.5 -51.5q0 -29 -20.5 -49t-51.5 -20t-52 20t-21 49z" />
<glyph unicode="&#xd7;" horiz-adv-x="1345" d="M274 313l336 336l-336 336l62 62l336 -336l336 336l61 -62l-334 -336l334 -336l-61 -61l-336 336l-336 -336z" />
<glyph unicode="&#xd8;" horiz-adv-x="1742" d="M143 696q0 216 91 381t256 255.5t380 90.5q261 0 447 -131l108 127l66 -57l-107 -125q103 -98 159 -236.5t56 -304.5q0 -326 -201.5 -526.5t-527.5 -200.5q-264 0 -448 133l-111 -129l-65 56l110 129q-213 204 -213 538zM244 696q0 -288 174 -465l837 988 q-156 116 -383 116q-282 0 -455 -176t-173 -463zM483 176q163 -119 389 -119q280 0 453.5 176t173.5 463q0 289 -178 467z" />
<glyph unicode="&#xd9;" horiz-adv-x="1566" d="M199 543v850h94v-850q0 -221 133.5 -353.5t355.5 -132.5q220 0 354 132.5t134 353.5v850h96v-850q0 -260 -160.5 -417t-423.5 -157t-423 157t-160 417zM520 1839h125l182 -319h-92z" />
<glyph unicode="&#xda;" horiz-adv-x="1566" d="M199 543v850h94v-850q0 -221 133.5 -353.5t355.5 -132.5q220 0 354 132.5t134 353.5v850h96v-850q0 -260 -160.5 -417t-423.5 -157t-423 157t-160 417zM743 1520l187 319h125l-215 -319h-97z" />
<glyph unicode="&#xdb;" horiz-adv-x="1566" d="M199 543v850h94v-850q0 -221 133.5 -353.5t355.5 -132.5q220 0 354 132.5t134 353.5v850h96v-850q0 -260 -160.5 -417t-423.5 -157t-423 157t-160 417zM471 1520l266 319h90l267 -319h-97l-215 245l-215 -245h-96z" />
<glyph unicode="&#xdc;" horiz-adv-x="1566" d="M199 543v850h94v-850q0 -221 133.5 -353.5t355.5 -132.5q220 0 354 132.5t134 353.5v850h96v-850q0 -260 -160.5 -417t-423.5 -157t-423 157t-160 417zM498 1677q0 31 20 51.5t51 20.5t51.5 -20.5t20.5 -51.5q0 -29 -20.5 -49t-51.5 -20t-51 20t-20 49zM922 1677 q0 31 21 51.5t52 20.5t51.5 -20.5t20.5 -51.5q0 -29 -20.5 -49t-51.5 -20t-52 20t-21 49z" />
<glyph unicode="&#xdd;" horiz-adv-x="1386" d="M57 1393h109l528 -785l527 785h108l-588 -881v-512h-96v512zM653 1520l187 319h125l-215 -319h-97z" />
<glyph unicode="&#xde;" horiz-adv-x="1306" d="M221 0v1393h94v-228q255 11 365 11q242 0 387 -122t145 -341q0 -202 -147 -327.5t-385 -125.5h-365v-260h-94zM315 346h371q193 0 311.5 101t118.5 266q0 180 -116.5 277t-313.5 97q-195 0 -371 -10v-731z" />
<glyph unicode="&#xdf;" horiz-adv-x="1318" d="M209 0v1194q0 185 73.5 267.5t239.5 82.5v-84q-119 0 -170 -63t-51 -209v-254h879v-62l-455 -497l80 -2q195 -6 311.5 -108.5t116.5 -274.5q0 -191 -138.5 -306.5t-363.5 -115.5q-145 0 -291 41l19 78q154 -37 274 -37q183 0 296.5 93t113.5 245q0 140 -100.5 222.5 t-266.5 82.5h-186v45l461 510h-750v-848h-92z" />
<glyph unicode="&#xe0;" horiz-adv-x="1243" d="M123 471q0 224 130 359t347 135q123 0 223.5 -11.5t237.5 -40.5v-913h-90v88q-102 -63 -189 -91t-186 -28q-214 0 -343.5 138t-129.5 364zM215 469q0 -189 105.5 -304.5t281.5 -115.5q91 0 176 28.5t191 94.5v678q-170 33 -363 33q-182 0 -286.5 -113t-104.5 -301z M420 1503h125l182 -323h-92z" />
<glyph unicode="&#xe1;" horiz-adv-x="1243" d="M123 471q0 224 130 359t347 135q123 0 223.5 -11.5t237.5 -40.5v-913h-90v88q-102 -63 -189 -91t-186 -28q-214 0 -343.5 138t-129.5 364zM215 469q0 -189 105.5 -304.5t281.5 -115.5q91 0 176 28.5t191 94.5v678q-170 33 -363 33q-182 0 -286.5 -113t-104.5 -301z M569 1180l183 323h125l-215 -323h-93z" />
<glyph unicode="&#xe2;" horiz-adv-x="1243" d="M123 471q0 224 130 359t347 135q123 0 223.5 -11.5t237.5 -40.5v-913h-90v88q-102 -63 -189 -91t-186 -28q-214 0 -343.5 138t-129.5 364zM215 469q0 -189 105.5 -304.5t281.5 -115.5q91 0 176 28.5t191 94.5v678q-170 33 -363 33q-182 0 -286.5 -113t-104.5 -301z M334 1165l266 318h90l266 -318h-96l-215 242l-215 -242h-96z" />
<glyph unicode="&#xe3;" horiz-adv-x="1243" d="M123 471q0 224 130 359t347 135q123 0 223.5 -11.5t237.5 -40.5v-913h-90v88q-102 -63 -189 -91t-186 -28q-214 0 -343.5 138t-129.5 364zM215 469q0 -189 105.5 -304.5t281.5 -115.5q91 0 176 28.5t191 94.5v678q-170 33 -363 33q-182 0 -286.5 -113t-104.5 -301z M342 1231q0 62 27.5 103t67.5 54.5t83.5 9.5t77.5 -26l117 -80q25 -16 52 -19.5t49.5 5t37 31.5t14.5 57h74q0 -62 -27 -103t-67 -54.5t-83 -9.5t-77 26l-119 82q-33 18 -67 19.5t-60 -24.5t-26 -71h-74z" />
<glyph unicode="&#xe4;" horiz-adv-x="1243" d="M123 471q0 224 130 359t347 135q123 0 223.5 -11.5t237.5 -40.5v-913h-90v88q-102 -63 -189 -91t-186 -28q-214 0 -343.5 138t-129.5 364zM215 469q0 -189 105.5 -304.5t281.5 -115.5q91 0 176 28.5t191 94.5v678q-170 33 -363 33q-182 0 -286.5 -113t-104.5 -301z M360 1288q0 29 20.5 49.5t51.5 20.5t52.5 -20.5t21.5 -49.5q0 -30 -21.5 -50.5t-52.5 -20.5t-51.5 20t-20.5 51zM786 1288q0 29 20.5 49.5t51.5 20.5t52.5 -20.5t21.5 -49.5q0 -30 -21.5 -50.5t-52.5 -20.5t-51.5 20t-20.5 51z" />
<glyph unicode="&#xe5;" horiz-adv-x="1243" d="M123 471q0 224 130 359t347 135q123 0 223.5 -11.5t237.5 -40.5v-913h-90v88q-102 -63 -189 -91t-186 -28q-214 0 -343.5 138t-129.5 364zM215 469q0 -189 105.5 -304.5t281.5 -115.5q91 0 176 28.5t191 94.5v678q-170 33 -363 33q-182 0 -286.5 -113t-104.5 -301z M461 1317q0 81 52.5 130.5t131.5 49.5q80 0 132 -49t52 -131q0 -79 -52.5 -129.5t-131.5 -50.5q-78 0 -131 51t-53 129zM524 1317q0 -53 34.5 -87t86.5 -34t87.5 34t35.5 87q0 54 -35.5 88.5t-87.5 34.5t-86.5 -34t-34.5 -89z" />
<glyph unicode="&#xe6;" horiz-adv-x="1853" d="M96 268q0 125 108.5 184.5t305.5 57.5l295 -4v96q0 281 -221 281q-183 0 -371 -31l-10 78q202 37 383 37q238 0 291 -219q62 104 168 160.5t241 56.5q200 0 322.5 -124t122.5 -335q0 -13 -1 -23.5t-2 -24.5t-2 -26h-825q11 -173 118 -276t279 -103q57 0 123 8.5t108 17.5 t118 27l16 -73q-199 -64 -367 -64q-194 0 -323 107q-259 -107 -473 -107q-404 0 -404 299zM184 266q0 -112 81.5 -165.5t248.5 -53.5q169 0 401 86q-99 123 -108 293l-301 2q-322 3 -322 -162zM901 508h744q0 176 -97 277.5t-260 101.5q-168 0 -273 -103.5t-114 -275.5z" />
<glyph unicode="&#xe7;" horiz-adv-x="1097" d="M123 469q0 226 143 362t377 136q160 0 318 -52l-17 -73q-167 45 -301 45q-191 0 -308.5 -114.5t-117.5 -303.5t115 -303.5t297 -114.5q138 0 340 55l16 -77q-194 -60 -356 -60q-226 0 -366 137t-140 363zM436 -414l109 312h92l-117 -312h-84z" />
<glyph unicode="&#xe8;" horiz-adv-x="1169" d="M123 471q0 222 133.5 358t349.5 136q198 0 320 -123.5t123 -333.5q0 -4 -5 -76h-823q11 -172 117 -275.5t278 -103.5q65 0 130.5 8.5t104.5 17t116 27.5l14 -73q-100 -32 -180 -48t-187 -16q-225 0 -358 138.5t-133 363.5zM219 508h744q-1 177 -98.5 278t-258.5 101 q-169 0 -273.5 -103.5t-113.5 -275.5zM410 1503h125l182 -323h-92z" />
<glyph unicode="&#xe9;" horiz-adv-x="1169" d="M123 471q0 222 133.5 358t349.5 136q198 0 320 -123.5t123 -333.5q0 -4 -5 -76h-823q11 -172 117 -275.5t278 -103.5q65 0 130.5 8.5t104.5 17t116 27.5l14 -73q-100 -32 -180 -48t-187 -16q-225 0 -358 138.5t-133 363.5zM219 508h744q-1 177 -98.5 278t-258.5 101 q-169 0 -273.5 -103.5t-113.5 -275.5zM559 1180l182 323h125l-215 -323h-92z" />
<glyph unicode="&#xea;" horiz-adv-x="1169" d="M123 471q0 222 133.5 358t349.5 136q198 0 320 -123.5t123 -333.5q0 -4 -5 -76h-823q11 -172 117 -275.5t278 -103.5q65 0 130.5 8.5t104.5 17t116 27.5l14 -73q-100 -32 -180 -48t-187 -16q-225 0 -358 138.5t-133 363.5zM219 508h744q-1 177 -98.5 278t-258.5 101 q-169 0 -273.5 -103.5t-113.5 -275.5zM326 1165l266 318h90l266 -318h-96l-215 242l-215 -242h-96z" />
<glyph unicode="&#xeb;" horiz-adv-x="1169" d="M123 471q0 222 133.5 358t349.5 136q198 0 320 -123.5t123 -333.5q0 -4 -5 -76h-823q11 -172 117 -275.5t278 -103.5q65 0 130.5 8.5t104.5 17t116 27.5l14 -73q-100 -32 -180 -48t-187 -16q-225 0 -358 138.5t-133 363.5zM219 508h744q-1 177 -98.5 278t-258.5 101 q-169 0 -273.5 -103.5t-113.5 -275.5zM352 1288q0 29 20.5 49.5t51.5 20.5t52.5 -20.5t21.5 -49.5q0 -30 -21.5 -50.5t-52.5 -20.5t-51.5 20t-20.5 51zM778 1288q0 29 20.5 49.5t51.5 20.5t52.5 -20.5t21.5 -49.5q0 -30 -21.5 -50.5t-52.5 -20.5t-51.5 20t-20.5 51z" />
<glyph unicode="&#xec;" horiz-adv-x="501" d="M-23 1503h125l183 -323h-92zM205 0v934h92v-934h-92z" />
<glyph unicode="&#xed;" horiz-adv-x="501" d="M205 0v934h92v-934h-92zM209 1180l180 323h125l-215 -323h-90z" />
<glyph unicode="&#xee;" horiz-adv-x="501" d="M-59 1165l266 318h90l266 -318h-96l-215 242l-215 -242h-96zM205 0v934h92v-934h-92z" />
<glyph unicode="&#xef;" horiz-adv-x="501" d="M-33 1288q0 29 20.5 49.5t51.5 20.5t52.5 -20.5t21.5 -49.5q0 -30 -21.5 -50.5t-52.5 -20.5t-51.5 20t-20.5 51zM205 0v934h92v-934h-92zM393 1288q0 29 20.5 49.5t51.5 20.5t52.5 -20.5t21.5 -49.5q0 -30 -21.5 -50.5t-52.5 -20.5t-51.5 20t-20.5 51z" />
<glyph unicode="&#xf0;" d="M123 471q0 222 140 359t355 137q134 0 235.5 -55t154.5 -154q-73 310 -287 483l-340 -127l-25 64l299 110q-117 83 -262 125l103 39q140 -45 252 -129l165 61l23 -63l-127 -49q152 -131 238 -331t86 -445q0 -251 -133.5 -390t-370.5 -139q-221 0 -363.5 140t-142.5 364z M217 471q0 -186 116 -302t296 -116q194 0 301.5 114.5t107.5 319.5q0 183 -113.5 289.5t-295.5 106.5q-180 0 -296 -114t-116 -298z" />
<glyph unicode="&#xf1;" horiz-adv-x="1241" d="M193 0v913q222 52 497 52q179 0 278 -103t99 -289v-573h-92v557q0 153 -78.5 238.5t-218.5 85.5q-205 0 -393 -35v-846h-92zM317 1231q0 62 27.5 103t67.5 54.5t83.5 9.5t77.5 -26l117 -80q50 -35 102 -14t52 88h74q0 -62 -27 -103t-67 -54.5t-83 -9.5t-77 26l-119 82 q-33 18 -67 19.5t-60.5 -24.5t-26.5 -71h-74z" />
<glyph unicode="&#xf2;" d="M123 471q0 223 141.5 359.5t364.5 136.5t364.5 -136.5t141.5 -359.5q0 -224 -141.5 -364t-364.5 -140t-364.5 140t-141.5 364zM217 471q0 -187 115 -302.5t297 -115.5q181 0 295 115.5t114 302.5q0 185 -114 298.5t-295 113.5q-183 0 -297.5 -113.5t-114.5 -298.5z M401 1503h125l183 -323h-93z" />
<glyph unicode="&#xf3;" d="M123 471q0 223 141.5 359.5t364.5 136.5t364.5 -136.5t141.5 -359.5q0 -224 -141.5 -364t-364.5 -140t-364.5 140t-141.5 364zM217 471q0 -187 115 -302.5t297 -115.5q181 0 295 115.5t114 302.5q0 185 -114 298.5t-295 113.5q-183 0 -297.5 -113.5t-114.5 -298.5z M551 1180l182 323h125l-215 -323h-92z" />
<glyph unicode="&#xf4;" d="M123 471q0 223 141.5 359.5t364.5 136.5t364.5 -136.5t141.5 -359.5q0 -224 -141.5 -364t-364.5 -140t-364.5 140t-141.5 364zM217 471q0 -187 115 -302.5t297 -115.5q181 0 295 115.5t114 302.5q0 185 -114 298.5t-295 113.5q-183 0 -297.5 -113.5t-114.5 -298.5z M315 1165l267 318h90l266 -318h-96l-215 242l-215 -242h-97z" />
<glyph unicode="&#xf5;" d="M123 471q0 223 141.5 359.5t364.5 136.5t364.5 -136.5t141.5 -359.5q0 -224 -141.5 -364t-364.5 -140t-364.5 140t-141.5 364zM217 471q0 -187 115 -302.5t297 -115.5q181 0 295 115.5t114 302.5q0 185 -114 298.5t-295 113.5q-183 0 -297.5 -113.5t-114.5 -298.5z M324 1231q0 62 27.5 103t67.5 54.5t83.5 9.5t77.5 -26l116 -80q50 -35 102 -14t52 88h74q0 -62 -27 -103t-67 -54.5t-83 -9.5t-77 26l-119 82q-33 18 -67 19.5t-60.5 -24.5t-26.5 -71h-73z" />
<glyph unicode="&#xf6;" d="M123 471q0 223 141.5 359.5t364.5 136.5t364.5 -136.5t141.5 -359.5q0 -224 -141.5 -364t-364.5 -140t-364.5 140t-141.5 364zM217 471q0 -187 115 -302.5t297 -115.5q181 0 295 115.5t114 302.5q0 185 -114 298.5t-295 113.5q-183 0 -297.5 -113.5t-114.5 -298.5z M344 1288q0 29 20.5 49.5t51.5 20.5t52 -20.5t21 -49.5q0 -31 -21 -51t-52 -20t-51.5 20t-20.5 51zM770 1288q0 29 20.5 49.5t51.5 20.5t52 -20.5t21 -49.5q0 -31 -21 -51t-52 -20t-51.5 20t-20.5 51z" />
<glyph unicode="&#xf7;" horiz-adv-x="1429" d="M254 610v86h922v-86h-922zM645 279q0 29 20.5 49t49.5 20t49 -20t20 -49t-20 -49.5t-49 -20.5t-49.5 20.5t-20.5 49.5zM645 1028q0 30 20 50t50 20q29 0 49 -20t20 -50q0 -29 -20 -48t-49 -19q-30 0 -50 19t-20 48z" />
<glyph unicode="&#xf8;" d="M123 471q0 223 141.5 359.5t364.5 136.5q166 0 295 -80l127 151l55 -49l-125 -147q154 -141 154 -371q0 -224 -141.5 -364t-364.5 -140q-172 0 -305 90l-142 -170l-55 50l141 167q-145 139 -145 367zM217 471q0 -178 109 -297l538 643q-97 66 -235 66 q-183 0 -297.5 -113.5t-114.5 -298.5zM383 127q104 -74 246 -74q181 0 295 115.5t114 302.5q0 185 -114 299z" />
<glyph unicode="&#xf9;" horiz-adv-x="1241" d="M176 360v574h92v-559q0 -157 76 -240.5t219 -83.5q204 0 395 33v850h93v-914q-218 -51 -500 -51q-179 0 -277 100t-98 291zM393 1503h125l182 -323h-92z" />
<glyph unicode="&#xfa;" horiz-adv-x="1241" d="M176 360v574h92v-559q0 -157 76 -240.5t219 -83.5q204 0 395 33v850h93v-914q-218 -51 -500 -51q-179 0 -277 100t-98 291zM545 1180l182 323h125l-215 -323h-92z" />
<glyph unicode="&#xfb;" horiz-adv-x="1241" d="M176 360v574h92v-559q0 -157 76 -240.5t219 -83.5q204 0 395 33v850h93v-914q-218 -51 -500 -51q-179 0 -277 100t-98 291zM309 1165l266 318h91l266 -318h-96l-215 242l-215 -242h-97z" />
<glyph unicode="&#xfc;" horiz-adv-x="1241" d="M176 360v574h92v-559q0 -157 76 -240.5t219 -83.5q204 0 395 33v850h93v-914q-218 -51 -500 -51q-179 0 -277 100t-98 291zM336 1288q0 29 20.5 49.5t51.5 20.5t52 -20.5t21 -49.5q0 -31 -21 -51t-52 -20t-51.5 20t-20.5 51zM762 1288q0 29 20.5 49.5t51.5 20.5t52 -20.5 t21 -49.5q0 -31 -21 -51t-52 -20t-51.5 20t-20.5 51z" />
<glyph unicode="&#xfd;" horiz-adv-x="1236" d="M88 934h105l438 -801l420 801h104l-727 -1391h-104l258 494zM543 1180l182 323h125l-215 -323h-92z" />
<glyph unicode="&#xfe;" horiz-adv-x="1257" d="M195 -457v1911h90v-524q175 35 370 35q217 0 346.5 -135t131.5 -359q0 -226 -130 -364t-344 -138q-80 0 -120 1.5t-106.5 9t-147.5 24.5v-461h-90zM285 84q85 -17 154 -25t101 -9t111 -1q177 0 282 115.5t105 304.5t-103.5 301.5t-287.5 112.5q-192 0 -362 -33v-766z" />
<glyph unicode="&#xff;" horiz-adv-x="1236" d="M88 934h105l438 -801l420 801h104l-727 -1391h-104l258 494zM334 1288q0 29 20.5 49.5t51.5 20.5t52 -20.5t21 -49.5q0 -31 -21 -51t-52 -20t-51.5 20t-20.5 51zM760 1288q0 30 20 50t51 20t52.5 -20.5t21.5 -49.5q0 -30 -21.5 -50.5t-52.5 -20.5t-51 20t-20 51z" />
<glyph unicode="&#x152;" horiz-adv-x="2058" d="M143 696q0 326 216 511t602 186h946v-88h-852v-566h768v-86h-768v-565h852v-88h-946q-386 1 -602 185.5t-216 510.5zM244 696q0 -288 185.5 -447.5t531.5 -160.5v1217q-346 -1 -531.5 -161t-185.5 -448z" />
<glyph unicode="&#x153;" horiz-adv-x="2086" d="M123 471q0 223 141.5 359.5t364.5 136.5q157 0 276 -70.5t180 -194.5q56 124 171 193.5t266 69.5q199 0 320.5 -123.5t121.5 -333.5q0 -47 -4 -76h-823q12 -172 118.5 -275.5t276.5 -103.5q65 0 130.5 8.5t103.5 17t116 27.5l16 -73q-69 -22 -111.5 -33t-112 -21 t-144.5 -10q-159 0 -274 71t-171 198q-60 -127 -180 -199t-276 -72q-223 0 -364.5 140t-141.5 364zM217 471q0 -187 115 -302.5t297 -115.5q181 0 295 115.5t114 302.5q0 185 -114 298.5t-295 113.5q-183 0 -297.5 -113.5t-114.5 -298.5zM1135 508h743q0 177 -96.5 278 t-259.5 101q-169 0 -273.5 -103.5t-113.5 -275.5z" />
<glyph unicode="&#x178;" horiz-adv-x="1386" d="M57 1393h109l528 -785l527 785h108l-588 -881v-512h-96v512zM410 1677q0 31 20 51.5t51 20.5t51.5 -20.5t20.5 -51.5q0 -29 -20.5 -49t-51.5 -20t-51 20t-20 49zM834 1677q0 31 21 51.5t52 20.5t51.5 -20.5t20.5 -51.5q0 -29 -20.5 -49t-51.5 -20t-52 20t-21 49z" />
<glyph unicode="&#x2c6;" horiz-adv-x="1228" d="M303 1165l266 318h90l267 -318h-97l-215 242l-215 -242h-96z" />
<glyph unicode="&#x2dc;" horiz-adv-x="1228" d="M311 1231q0 62 27.5 103t67.5 54.5t83.5 9.5t77.5 -26l117 -80q50 -35 102 -14t52 88h73q0 -62 -27 -103t-67 -54.5t-83 -9.5t-77 26l-118 82q-33 18 -67 19.5t-60.5 -24.5t-26.5 -71h-74z" />
<glyph unicode="&#x2000;" horiz-adv-x="927" />
<glyph unicode="&#x2001;" horiz-adv-x="1855" />
<glyph unicode="&#x2002;" horiz-adv-x="927" />
<glyph unicode="&#x2003;" horiz-adv-x="1855" />
<glyph unicode="&#x2004;" horiz-adv-x="618" />
<glyph unicode="&#x2005;" horiz-adv-x="463" />
<glyph unicode="&#x2006;" horiz-adv-x="309" />
<glyph unicode="&#x2007;" horiz-adv-x="309" />
<glyph unicode="&#x2008;" horiz-adv-x="231" />
<glyph unicode="&#x2009;" horiz-adv-x="371" />
<glyph unicode="&#x200a;" horiz-adv-x="103" />
<glyph unicode="&#x2010;" horiz-adv-x="1103" d="M254 520h596v90h-596v-90z" />
<glyph unicode="&#x2011;" horiz-adv-x="1103" d="M254 520h596v90h-596v-90z" />
<glyph unicode="&#x2012;" horiz-adv-x="1103" d="M254 520h596v90h-596v-90z" />
<glyph unicode="&#x2013;" horiz-adv-x="1345" d="M164 520h1018v92h-1018v-92z" />
<glyph unicode="&#x2014;" horiz-adv-x="1843" d="M164 520h1515v92h-1515v-92z" />
<glyph unicode="&#x2018;" horiz-adv-x="526" d="M162 1190q0 7 0.5 12.5t1.5 12t4 15.5l6 18t9.5 25.5t13 32.5t18 44.5t22.5 55t29 70t35 85.5h70l-105 -304q53 -15 53 -67q0 -32 -22.5 -54t-54.5 -22q-34 0 -57 22t-23 54z" />
<glyph unicode="&#x2019;" horiz-adv-x="532" d="M135 1108l107 305q-54 15 -54 66q0 32 23 54.5t55 22.5q34 0 57 -22.5t23 -54.5q0 -7 -0.5 -12.5t-1.5 -11.5t-4 -15l-6 -18t-9.5 -25.5t-13 -32.5t-18 -44t-22.5 -55t-29 -71t-35 -86h-72z" />
<glyph unicode="&#x201a;" horiz-adv-x="532" d="M135 -313l107 303q-56 16 -56 67q0 32 23 54t57 22q32 0 55 -22t23 -54q0 -27 -13.5 -64.5t-76.5 -188.5q-10 -23 -15.5 -36.5t-15 -36.5t-18.5 -44h-70z" />
<glyph unicode="&#x201c;" horiz-adv-x="843" d="M152 1190q0 7 0.5 12.5t1.5 11.5t4 15l6 18t9.5 25.5t13 32t18 43.5t22.5 55t29 70.5t35 85.5h71l-106 -304q53 -15 53 -65q0 -33 -22.5 -55.5t-55.5 -22.5q-34 0 -56.5 22t-22.5 56zM463 1190q0 7 0.5 12.5t1.5 11.5t4 15l6 18t9.5 25.5t13 32t18 43.5t22.5 55t29 70.5 t35 85.5h72l-107 -304q54 -15 54 -65q0 -33 -22.5 -55.5t-55.5 -22.5q-34 0 -57 22t-23 56z" />
<glyph unicode="&#x201d;" horiz-adv-x="843" d="M152 1124l106 306q-53 15 -53 65q0 32 23 55t55 23q33 0 56 -22.5t23 -55.5q0 -7 -0.5 -12.5t-1.5 -11.5t-4 -15l-6 -18t-9.5 -25.5t-13 -32.5t-18 -44t-22.5 -55t-29 -71t-35 -86h-71zM463 1124l106 306q-53 15 -53 65q0 32 23 55t55 23q34 0 57 -23t23 -55 q0 -7 -0.5 -12.5t-1.5 -11.5t-4 -15l-6 -18t-9.5 -25.5t-13 -32.5t-18 -44t-22.5 -55t-29 -71t-35 -86h-72z" />
<glyph unicode="&#x201e;" horiz-adv-x="851" d="M135 -313l107 303q-56 16 -56 67q0 32 23 54t57 22q32 0 55 -22t23 -54q0 -27 -13.5 -64.5t-76.5 -188.5q-10 -23 -15.5 -36.5t-15 -36.5t-18.5 -44h-70zM455 -313l106 303q-53 15 -53 67q0 32 23 54t55 22q34 0 57 -22t23 -54q0 -8 -0.5 -13.5t-2.5 -14.5t-4.5 -16.5 t-8.5 -24t-12.5 -31.5t-18 -44t-23.5 -57t-31.5 -75t-38.5 -94h-71z" />
<glyph unicode="&#x2022;" horiz-adv-x="628" d="M98 608q0 91 62 153t153 62q92 0 154.5 -62t62.5 -153t-62.5 -153t-154.5 -62q-91 0 -153 62t-62 153z" />
<glyph unicode="&#x2026;" horiz-adv-x="1400" d="M186 55q0 33 22.5 55.5t55.5 22.5q34 0 57 -22t23 -56q0 -32 -23 -53.5t-57 -21.5q-33 0 -55.5 21.5t-22.5 53.5zM616 55q0 33 22.5 55.5t55.5 22.5q34 0 57 -22t23 -56q0 -32 -23 -53.5t-57 -21.5q-33 0 -55.5 21.5t-22.5 53.5zM1057 55q0 33 22.5 55.5t55.5 22.5 q34 0 56.5 -22t22.5 -56q0 -32 -22.5 -53.5t-56.5 -21.5q-33 0 -55.5 21.5t-22.5 53.5z" />
<glyph unicode="&#x202f;" horiz-adv-x="371" />
<glyph unicode="&#x2039;" horiz-adv-x="706" d="M115 504l379 393l55 -47l-322 -344l320 -344l-53 -51z" />
<glyph unicode="&#x203a;" horiz-adv-x="704" d="M156 162l321 344l-321 344l55 47l379 -393l-379 -393z" />
<glyph unicode="&#x205f;" horiz-adv-x="463" />
<glyph unicode="&#x20ac;" horiz-adv-x="1636" d="M143 487v74h174q-10 54 -10 133q0 68 4 101h-168v73h179q50 257 236.5 406t473.5 149q227 0 455 -77l-21 -82q-226 67 -426 67q-244 0 -405 -124t-207 -339h709l-19 -73h-704q-6 -49 -6 -101q0 -72 12 -133h639l-19 -74h-602q53 -200 206.5 -314t375.5 -114q216 0 483 80 l21 -80q-269 -90 -506 -90q-267 0 -448.5 139t-237.5 379h-189z" />
<glyph unicode="&#x2122;" horiz-adv-x="1466" d="M23 1327v66h563v-66h-246v-563h-72v563h-245zM664 764l34 629h70l248 -541l246 541h67l37 -629h-68l-28 483l-221 -483h-66l-223 483l-29 -483h-67z" />
<glyph unicode="&#x25fc;" horiz-adv-x="931" d="M0 0v932h932v-932h-932z" />
<glyph unicode="&#xfb03;" horiz-adv-x="1875" d="M10 850v84h236v194q0 208 100.5 312t294.5 104q108 0 194 -28.5t191 -96.5q98 125 311 125q89 0 162 -18.5t162 -61.5l-39 -67q-131 63 -283 63q-154 0 -229.5 -82.5t-75.5 -251.5v-192h668v-934h-92v850h-576v-850h-92v850h-604v-850h-92v850h-236zM338 934h604v194 q0 129 41 222q-85 58 -163 84t-175 26q-155 0 -231 -82.5t-76 -251.5v-192z" />
<glyph unicode="&#xfb04;" horiz-adv-x="1894" d="M10 850v84h236v194q0 208 100.5 312t294.5 104q107 0 193.5 -29t189.5 -96q101 125 309 125q139 0 279 -65l74 -4v-1475h-93v1403q-62 30 -119.5 43.5t-138.5 13.5q-147 0 -224 -82t-77 -235v-209h389v-84h-389v-850h-92v850h-604v-850h-92v850h-236zM338 934h604v211 q0 123 39 205q-83 58 -161 84t-175 26q-155 0 -231 -82.5t-76 -251.5v-192z" />
</font>
</defs>
</svg>
